HIERARCHY
ROOT ui
{
	 OFFSET 0 0 0
	 CHANNELS 3 XPosition YPosition Z Position
	 EndSite
	 {
	 OFFSET 0 -1 0
	 }
}
ROOT li
{
	 OFFSET 0 0 0
	 CHANNELS 3 XPosition YPosition Z Position
	 EndSite
	 {
	 OFFSET 0 -1 0
	 }
}
ROOT ul
{
	 OFFSET 0 0 0
	 CHANNELS 3 XPosition YPosition Z Position
	 EndSite
	 {
	 OFFSET 0 -1 0
	 }
}
ROOT ll
{
	 OFFSET 0 0 0
	 CHANNELS 3 XPosition YPosition Z Position
	 EndSite
	 {
	 OFFSET 0 -1 0
	 }
}
ROOT tt
{
	 OFFSET 0 0 0
	 CHANNELS 3 XPosition YPosition Z Position
	 EndSite
	 {
	 OFFSET 0 -1 0
	 }
}
ROOT tb
{
	 OFFSET 0 0 0
	 CHANNELS 3 XPosition YPosition Z Position
	 EndSite
	 {
	 OFFSET 0 -1 0
	 }
}
ROOT td
{
	 OFFSET 0 0 0
	 CHANNELS 3 XPosition YPosition Z Position
	 EndSite
	 {
	 OFFSET 0 -1 0
	 }
}
ROOT v
{
	 OFFSET 0 0 0
	 CHANNELS 3 XPosition YPosition Z Position
	 EndSite
	 {
	 OFFSET 0 -1 0
	 }
}
ROOT bn
{
	 OFFSET 0 0 0
	 CHANNELS 3 XPosition YPosition Z Position
	 EndSite
	 {
	 OFFSET 0 -1 0
	 }
}
MOTION
Frames: 21
Frame Time: 0.002
-0.04756134033203125	-0.005503075122833252	0		0.6843897094726562	-2.70397412109375	0		-0.9444356689453125	0.0751777572631836	0		-0.3790355529785156	-2.72376611328125	0		2.231328857421875	-0.48929742431640627	0		3.67017724609375	-0.18219476318359376	0		4.95530859375	-0.11777711486816406	0		5.9135146484375	0.34767059326171873	0		-0.06592018890380859	6.00647509765625	0		
0.011542194366455078	0.007522058010101318	0		0.7401787719726562	-2.705924560546875	0		-0.95045947265625	0.08022530364990234	0		-0.41723614501953127	-2.7242470703125	0		2.2312099609375	-0.4894417724609375	0		3.65693212890625	-0.19118516540527344	0		4.93653955078125	-0.09572027587890625	0		5.9134228515625	0.34740936279296875	0		-0.09714991760253906	5.9858798828125	0		
0.00427933120727539	0.0015747870206832887	0		0.676110595703125	-2.69302490234375	0		-0.8766529541015625	0.07806858825683594	0		-0.3489175109863281	-2.75234130859375	0		2.217763427734375	-0.5063675537109374	0		3.66807421875	-0.17052877807617187	0		4.9305029296875	-0.08684355163574219	0		5.9091396484375	0.33922592163085935	0		-0.06402554321289063	5.992322265625	0		
0.004041818141937256	0.0015428810119628906	0		0.700705810546875	-2.698461669921875	0		-0.8828106079101562	0.08315676116943359	0		-0.39334674072265624	-2.75868603515625	0		2.2144482421875	-0.5104248962402343	0		3.6310654296875	-0.15511395263671876	0		4.92949267578125	-0.07202200317382812	0		5.9089130859375	0.33900210571289063	0		-0.06505287170410157	5.9933076171875	0		
-0.05823486328125	0.003490488052368164	0		0.6733681030273437	-2.695074951171875	0		-0.8831072998046875	0.08318019104003906	0		-0.34620257568359375	-2.789412841796875	0		2.203948974609375	-0.5223468627929687	0		3.622792724609375	-0.15311430358886718	0		4.9182080078125	-0.07101827239990234	0		5.908625	0.3388050537109375	0		-0.06792681884765625	6.00834912109375	0		
0.0033875770568847657	0.0015616379976272582	0		0.6868477172851563	-2.700287353515625	0		-0.9442674560546875	0.09617112731933594	0		-0.36293807983398435	-2.808128662109375	0		2.1435537109375	-0.5234691162109375	0		3.6245712890625	-0.1442386016845703	0		4.904314453125	-0.04094029998779297	0		5.9124033203125	0.34657644653320313	0		-0.06611929321289063	6.0063447265625	0		
0.018063676834106444	0.006385402202606201	0		0.6816101684570313	-2.684177978515625	0		-0.872548828125	0.103144775390625	0		-0.33456906127929686	-2.817507568359375	0		2.152935791015625	-0.536634033203125	0		3.605555419921875	-0.11900747680664063	0		4.89419287109375	-0.022887933731079103	0		5.91201513671875	0.346444580078125	0		-0.06829663848876953	6.00843359375	0		
6.817010045051575E-4	0.009736559867858886	0		0.66612841796875	-2.68187841796875	0		-0.9569352416992187	0.10656019592285157	0		-0.3473027648925781	-2.831220703125	0		2.114353759765625	-0.5450232543945313	0		3.547066162109375	-0.12213333129882813	0		4.8837783203125	-0.02179707145690918	0		5.91134814453125	0.3303510131835937	0		-0.06950857543945313	6.0105400390625	0		
0.010075910568237305	-2.9499998688697817E-4	0		0.7014063110351563	-2.6943330078125	0		-0.88340625	0.10456492614746093	0		-0.26939111328125	-2.86730810546875	0		2.104686767578125	-0.5578245849609375	0		3.549813720703125	-0.10916751861572266	0		4.86670166015625	0.002436539888381958	0		5.910171875	0.34730609130859375	0		-0.06603878784179687	5.9936044921875	0		
-0.002412780046463013	-0.0019546749591827393	0		0.674916748046875	-2.69079638671875	0		-0.9578377685546875	0.10689421081542969	0		-0.3330986938476562	-2.87716650390625	0		2.072215087890625	-0.5572362670898438	0		3.536368408203125	-0.1079173583984375	0		4.85449267578125	0.01863018035888672	0		5.90972314453125	0.34728427124023437	0		-0.10040857696533204	5.9882890625	0		
0.004235916137695313	0.0051195650100708005	0		0.678457275390625	-2.68569482421875	0		-0.9542322387695312	0.1110429916381836	0		-0.32584405517578124	-2.890095947265625	0		2.0684443359375	-0.5760630493164063	0		3.516343994140625	-0.07952751922607422	0		4.84739208984375	0.04178042984008789	0		5.9182568359375	0.34615814208984375	0		-0.03626760864257812	6.01547705078125	0		
0.008706125259399414	2.5369301438331603E-4	0		0.6789627075195312	-2.683517822265625	0		-0.9455725708007813	0.11813981628417969	0		-0.33145263671875	-2.894796630859375	0		2.048839111328125	-0.5846114501953125	0		3.487893798828125	-0.07897678375244141	0		4.83233349609375	0.0670887451171875	0		5.921970703125	0.356142578125	0		-0.07062654113769531	6.01122021484375	0		
0.0033484070301055906	0.005567436218261719	0		0.71946630859375	-2.682939208984375	0		-0.8679685668945313	0.12018324279785156	0		-0.29734417724609374	-2.919094970703125	0		1.997159423828125	-0.5986309204101562	0		3.476862548828125	-0.052663536071777345	0		4.79916845703125	0.08471112823486328	0		5.92154345703125	0.3562231750488281	0		-0.07090467071533203	6.01145849609375	0		
-1.1350400000810623E-4	0.00287273907661438	0		0.6670685424804688	-2.67688671875	0		-0.93731005859375	0.12554132080078126	0		-0.2601496887207031	-2.939421142578125	0		1.9785904541015624	-0.6071399536132812	0		3.43640380859375	-0.05486617279052734	0		4.7841474609375	0.11008126831054688	0		5.92113671875	0.35633392333984376	0		-0.07215480041503906	6.01273388671875	0		
3.7147799134254456E-4	-0.004866350173950196	0		0.69053515625	-2.682001708984375	0		-0.9327600708007813	0.1217609634399414	0		-0.29185467529296877	-2.954652099609375	0		1.9349256591796875	-0.623235107421875	0		3.39823681640625	-0.040077404022216795	0		4.75125	0.14175822448730468	0		5.91588134765625	0.3645487365722656	0		-0.03736158752441406	6.01546240234375	0		
0.007105189800262451	0.0013117549419403077	0		0.6511538696289062	-2.67911669921875	0		-0.908104248046875	0.12267763519287109	0		-0.24850299072265625	-2.96904541015625	0		1.9282086181640625	-0.6448916015625	0		3.395939453125	-0.03583150100708008	0		4.74323974609375	0.16406671142578125	0		5.92452880859375	0.364568115234375	0		-0.06871237182617188	6.0082392578125	0		
0.01084217643737793	0.0055455322265625	0		0.696879150390625	-2.6725556640625	0		-0.9043648681640625	0.12692971801757813	0		-0.2858988647460938	-2.969162109375	0		1.9158560791015624	-0.6454443969726562	0		3.353073974609375	-0.005930652141571045	0		4.72242236328125	0.19659483337402345	0		5.9242109375	0.3647468566894531	0		-0.0377957878112793	6.0160498046875	0		
0.006490908145904541	0.0019098479747772217	0		0.6665287475585937	-2.672795654296875	0		-0.9105721435546875	0.13234127807617188	0		-0.2516085968017578	-2.992403076171875	0		1.893133544921875	-0.6718295288085937	0		3.29366650390625	-0.012763093948364258	0		4.69164404296875	0.2292919921875	0		5.91980322265625	0.3570023193359375	0		-0.07106377410888672	6.01087158203125	0		
-8.548030257225037E-4	-0.003679544925689697	0		0.6911487426757813	-2.677900146484375	0		-0.9108220825195312	0.1326567840576172	0		-0.257006103515625	-2.99801953125	0		1.8345465087890624	-0.6916470336914062	0		3.274526611328125	-0.005221861839294434	0		4.67775927734375	0.2527285003662109	0		5.92755615234375	0.3570743408203125	0		-0.1015549545288086	5.98964697265625	0		
-0.001071153998374939	-0.0033865530490875245	0		0.6649240112304687	-2.675208984375	0		-0.90511572265625	0.12787054443359375	0		-0.2515077514648438	-3.01281494140625	0		1.8049288330078126	-0.7159237060546875	0		3.256548583984375	0.010300023078918457	0		4.633041015625	0.2846510925292969	0		5.92347216796875	0.36533380126953124	0		-0.10443805694580079	6.0049873046875	0		
-0.0012528959512710571	-0.003105523109436035	0		0.6496568603515624	-2.677701171875	0		-0.9711611328125	0.1372047576904297	0		-0.3108218078613281	-3.01759912109375	0		1.78147119140625	-0.732304931640625	0		3.198005126953125	0.05145760345458984	0		4.61232373046875	0.3141902770996094	0		5.9402939453125	0.36525811767578126	0		-0.036364898681640626	6.0151962890625	0		
